<svg width="51" height="50" viewBox="0 0 51 50" fill="none" xmlns="http://www.w3.org/2000/svg">
<g clip-path="url(#clip0_278_448)">
<g opacity="0.76">
<mask id="mask0_278_448" style="mask-type:luminance" maskUnits="userSpaceOnUse" x="0" y="0" width="51" height="50">
<path d="M50.747 0H0.251953V50H50.747V0Z" fill="white"/>
</mask>
<g mask="url(#mask0_278_448)">
<path fill-rule="evenodd" clip-rule="evenodd" d="M3.80147 3.51472C0.251953 7.02945 0.251953 12.6863 0.251953 24V26C0.251953 37.3137 0.251953 42.9705 3.80147 46.4853C7.351 50 13.0639 50 24.4896 50H26.5094C37.9351 50 43.6479 50 47.1975 46.4853C50.747 42.9705 50.747 37.3137 50.747 26V24C50.747 12.6863 50.747 7.02945 47.1975 3.51472C43.6479 0 37.9351 0 26.5094 0H24.4896C13.0639 0 7.351 0 3.80147 3.51472ZM8.77309 15.2085C9.04657 28.2085 15.6109 36.0209 27.1196 36.0209H27.7719V28.5834C32.0009 29.0001 35.1987 32.0626 36.482 36.0209H42.4575C40.8164 30.1043 36.5031 26.8334 33.81 25.5834C36.5031 24.0417 40.2902 20.2917 41.1949 15.2085H35.7665C34.5883 19.3335 31.0961 23.0834 27.7719 23.4375V15.2085H22.3435V29.625C18.9772 28.7917 14.7273 24.7501 14.5379 15.2085H8.77309Z" fill="white"/>
</g>
</g>
</g>
<defs>
<clipPath id="clip0_278_448">
<rect width="51" height="50" fill="white"/>
</clipPath>
</defs>
</svg>
