<svg width="51" height="50" viewBox="0 0 51 50" fill="none" xmlns="http://www.w3.org/2000/svg">
<path fill-rule="evenodd" clip-rule="evenodd" d="M3.54952 3.51472C0 7.02945 0 12.6863 0 24V26C0 37.3137 0 42.9705 3.54952 46.4853C7.09905 50 12.8119 50 24.2376 50H26.2574C37.6831 50 43.396 50 46.9455 46.4853C50.495 42.9705 50.495 37.3137 50.495 26V24C50.495 12.6863 50.495 7.02945 46.9455 3.51472C43.396 0 37.6831 0 26.2574 0H24.2376C12.8119 0 7.09905 0 3.54952 3.51472ZM8.52114 15.2085C8.79462 28.2085 15.3589 36.0209 26.8676 36.0209H27.52V28.5834C31.7489 29.0001 34.9467 32.0626 36.2301 36.0209H42.2055C40.5644 30.1043 36.2511 26.8334 33.558 25.5834C36.2511 24.0417 40.0383 20.2917 40.9429 15.2085H35.5146C34.3364 19.3335 30.8442 23.0834 27.52 23.4375V15.2085H22.0915V29.625C18.7252 28.7917 14.4753 24.7501 14.286 15.2085H8.52114Z" fill="#0078E7"/>
</svg>
