<svg width="50" height="50" viewBox="0 0 50 50" fill="none" xmlns="http://www.w3.org/2000/svg">
<path d="M23.5312 0.0374985C23.3625 0.0499992 22.7563 0.118748 22.1875 0.193748C15 1.09375 8.39375 5.33125 4.54375 11.5C2.36875 14.9875 1.1375 18.7875 0.88125 22.8125C0.8125 23.8875 0.8875 26.125 1.025 27.2625C1.4375 30.5562 2.36875 33.3813 4.03125 36.4062L4.20625 36.725L3.89375 37.6562C2.8125 40.8438 2.00625 43.2188 1.06875 45.9938C0.39375 47.975 0 49.2312 0 49.3875C0 49.7312 0.26875 50 0.6125 50C0.75 50 1.825 49.6937 3.1 49.2875C4.33125 48.8937 6.24375 48.2875 7.34375 47.9375C8.44375 47.5875 9.6375 47.2062 10 47.0938C10.3625 46.9813 11.3688 46.6625 12.2438 46.3812L13.825 45.8812L14.5813 46.2562C17.1438 47.5438 20.4937 48.4625 23.4125 48.6812C26.5125 48.9187 29.5063 48.6125 32.3563 47.775C36.1437 46.6625 39.575 44.7 42.3375 42.0687C43.4562 40.9937 44.2125 40.1687 44.9562 39.2C47.3125 36.1125 48.8688 32.6875 49.5875 28.9625C49.9188 27.25 49.9688 26.6625 49.9625 24.5625C49.9625 22.45 49.8937 21.6125 49.5875 19.9375C47.8188 10.35 40.4625 2.74375 30.8313 0.5625C29.1125 0.174999 28 0.0562477 25.8125 0.03125C24.7313 0.0249977 23.7063 0.0249977 23.5312 0.0374985ZM27.1875 5.1875C28.8875 5.3375 30.8563 5.8 32.5812 6.4625C34.3375 7.1375 36.6375 8.525 38.125 9.80625C40.325 11.7 42.175 14.2313 43.3312 16.9437C44.75 20.2687 45.2 24.2188 44.5625 27.7188C43.45 33.8125 39.4375 39.05 33.8438 41.725C31.125 43.0187 28.425 43.625 25.3062 43.625C21.8188 43.625 18.4062 42.6625 15.3562 40.8187C14.7937 40.4812 14.5625 40.375 14.3875 40.375C14.1938 40.375 11.9062 41.075 8.575 42.1562C8.11875 42.3 7.75625 42.3937 7.76875 42.35C7.78125 42.3125 8.2625 40.8875 8.8375 39.1875C9.81875 36.2688 9.875 36.0813 9.80625 35.875C9.7625 35.7562 9.65 35.5562 9.55625 35.4312C9.15 34.9125 8.44375 33.7125 7.9625 32.7188C7.36875 31.4875 7.03125 30.6062 6.71875 29.4688C5.59375 25.3562 5.8375 21.1 7.41875 17.2188C9.55625 11.9688 13.8562 7.94375 19.2812 6.11875C20.5813 5.68125 22.3875 5.29375 23.625 5.19375C24.5 5.11875 26.3687 5.11875 27.1875 5.1875Z" fill="#25B700"/>
<path d="M17.5321 13.0375C16.2071 13.275 15.4946 13.5812 14.9258 14.1437C14.1758 14.8812 13.6446 15.875 13.3321 17.0937C13.1196 17.95 13.0633 19.45 13.2133 20.35C13.3383 21.0687 13.7071 22.225 14.0571 22.9687C14.9696 24.9187 17.5883 28.3937 19.5508 30.2562C21.8321 32.4312 23.9696 33.8125 26.5946 34.8C29.9883 36.0812 32.2696 36.4062 34.0383 35.8687C35.5008 35.425 37.1571 34.1812 37.6571 33.1687C38.0008 32.4562 38.1946 31.6062 38.2321 30.6562C38.2821 29.3187 38.2821 29.3187 35.6571 28.05C33.4071 26.9562 32.9758 26.7625 32.4383 26.5812C31.5696 26.2875 31.0008 26.4812 30.4508 27.2437C30.2758 27.475 29.8446 28.0187 29.4883 28.4375C29.1321 28.8625 28.7883 29.275 28.7196 29.3625L28.5883 29.5125L28.0321 29.2812C26.9258 28.825 25.6133 28.0187 24.5321 27.1187C23.1508 25.9687 21.5008 24.1687 20.6633 22.8937L20.4883 22.6375L21.0758 21.9562C21.7821 21.1437 22.0071 20.8187 22.2696 20.2625C22.5258 19.7125 22.5321 19.1875 22.3008 18.6812C22.2133 18.4937 21.8633 17.6812 21.5321 16.875C21.1946 16.0687 20.7946 15.1062 20.6446 14.7312C20.1946 13.6625 19.8883 13.25 19.3508 13.0187C19.1196 12.9125 18.1696 12.925 17.5321 13.0375Z" fill="#25B700"/>
</svg>
